<svg width="800" height="800" version="1.1" xmlns="http://www.w3.org/2000/svg" desc="Created with imagetracer.js version 1.2.6" ><path fill="rgb(197,197,197)" stroke="rgb(197,197,197)" stroke-width="1" opacity="1" d="M 179.5 128 L 180 485.5 L 179 485.5 L 179.5 128 Z " /><path fill="rgb(197,197,197)" stroke="rgb(197,197,197)" stroke-width="1" opacity="1" d="M 221.5 128 L 222 485.5 L 221 485.5 L 221.5 128 Z " /><path fill="rgb(197,197,197)" stroke="rgb(197,197,197)" stroke-width="1" opacity="1" d="M 335.5 128 L 338 128.5 L 335.5 129 L 335.5 128 Z " /><path fill="rgb(197,197,197)" stroke="rgb(197,197,197)" stroke-width="1" opacity="1" d="M 353.5 128 L 356 128.5 L 353.5 129 L 353.5 128 Z " /><path fill="rgb(197,197,197)" stroke="rgb(197,197,197)" stroke-width="1" opacity="1" d="M 522.5 128 L 525 128.5 L 522.5 129 L 522.5 128 Z " /><path fill="rgb(197,197,197)" stroke="rgb(197,197,197)" stroke-width="1" opacity="1" d="M 492.5 139 L 491.5 141 L 492.5 139 Z " /><path fill="rgb(197,197,197)" stroke="rgb(197,197,197)" stroke-width="1" opacity="1" d="M 570.5 139 L 571.5 141 L 570.5 139 Z " /><path fill="rgb(197,197,197)" stroke="rgb(197,197,197)" stroke-width="1" opacity="1" d="M 304.5 140 L 303.5 142 L 304.5 140 Z " /><path fill="rgb(197,197,197)" stroke="rgb(197,197,197)" stroke-width="1" opacity="1" d="M 386.5 141 L 387.5 143 L 386.5 141 Z " /><path fill="rgb(197,197,197)" stroke="rgb(197,197,197)" stroke-width="1" opacity="1" d="M 488.5 142 L 486.5 145 L 488.5 142 Z " /><path fill="rgb(197,197,197)" stroke="rgb(197,197,197)" stroke-width="1" opacity="1" d="M 574.5 142 L 575.5 144 L 574.5 142 Z " /><path fill="rgb(197,197,197)" stroke="rgb(197,197,197)" stroke-width="1" opacity="1" d="M 299.5 144 L 292.5 152 L 299.5 144 Z " /><path fill="rgb(197,197,197)" stroke="rgb(197,197,197)" stroke-width="1" opacity="1" d="M 391.5 145 L 394.5 149 L 391.5 145 Z " /><path fill="rgb(197,197,197)" stroke="rgb(197,197,197)" stroke-width="1" opacity="1" d="M 581.5 148 L 583.5 151 L 581.5 148 Z " /><path fill="rgb(197,197,197)" stroke="rgb(197,197,197)" stroke-width="1" opacity="1" d="M 396.5 150 L 400.5 155 L 396.5 150 Z " /><path fill="rgb(197,197,197)" stroke="rgb(197,197,197)" stroke-width="1" opacity="1" d="M 479.5 151 L 477.5 154 L 479.5 151 Z " /><path fill="rgb(197,197,197)" stroke="rgb(197,197,197)" stroke-width="1" opacity="1" d="M 289.5 155 L 288.5 157 L 289.5 155 Z " /><path fill="rgb(197,197,197)" stroke="rgb(197,197,197)" stroke-width="1" opacity="1" d="M 588.5 156 L 589.5 158 L 588.5 156 Z " /><path fill="rgb(197,197,197)" stroke="rgb(197,197,197)" stroke-width="1" opacity="1" d="M 591.5 160 L 592.5 162 L 591.5 160 Z " /><path fill="rgb(197,197,197)" stroke="rgb(197,197,197)" stroke-width="1" opacity="1" d="M 405.5 161 L 406.5 163 L 405.5 161 Z " /><path fill="rgb(197,197,197)" stroke="rgb(197,197,197)" stroke-width="1" opacity="1" d="M 341.5 171 L 344 171.5 L 341.5 172 L 341.5 171 Z " /><path fill="rgb(197,197,197)" stroke="rgb(197,197,197)" stroke-width="1" opacity="1" d="M 348.5 171 L 351 171.5 L 348.5 172 L 348.5 171 Z " /><path fill="rgb(197,197,197)" stroke="rgb(197,197,197)" stroke-width="1" opacity="1" d="M 527.5 171 L 530 171.5 L 527.5 172 L 527.5 171 Z " /><path fill="rgb(197,197,197)" stroke="rgb(197,197,197)" stroke-width="1" opacity="1" d="M 534.5 171 L 538 171.5 L 534.5 172 L 534.5 171 Z " /><path fill="rgb(197,197,197)" stroke="rgb(197,197,197)" stroke-width="1" opacity="1" d="M 327.5 177 L 322.5 183 L 327.5 177 Z " /><path fill="rgb(197,197,197)" stroke="rgb(197,197,197)" stroke-width="1" opacity="1" d="M 365.5 178 L 369.5 183 L 365.5 178 Z " /><path fill="rgb(197,197,197)" stroke="rgb(197,197,197)" stroke-width="1" opacity="1" d="M 416.5 189 L 417 191.5 L 416 191.5 L 416.5 189 Z " /><path fill="rgb(197,197,197)" stroke="rgb(197,197,197)" stroke-width="1" opacity="1" d="M 275.5 191 L 276 193.5 L 275 193.5 L 275.5 191 Z " /><path fill="rgb(197,197,197)" stroke="rgb(197,197,197)" stroke-width="1" opacity="1" d="M 603.5 192 L 604 485.5 L 603 485.5 L 603.5 192 Z " /><path fill="rgb(197,197,197)" stroke="rgb(197,197,197)" stroke-width="1" opacity="1" d="M 375.5 196 L 376 198.5 L 375 198.5 L 375.5 196 Z " /><path fill="rgb(197,197,197)" stroke="rgb(197,197,197)" stroke-width="1" opacity="1" d="M 316.5 197 L 317 485.5 L 316 485.5 L 316.5 197 Z " /><path fill="rgb(197,197,197)" stroke="rgb(197,197,197)" stroke-width="1" opacity="1" d="M 562.5 200 L 563 485.5 L 562 485.5 L 562.5 200 Z " /><path fill="rgb(197,197,197)" stroke="rgb(197,197,197)" stroke-width="1" opacity="1" d="M 190.5 513 L 193 513.5 L 190.5 514 L 190.5 513 Z " /><path fill="rgb(197,197,197)" stroke="rgb(197,197,197)" stroke-width="1" opacity="1" d="M 221.5 513 L 229 513.5 L 221.5 514 L 221.5 513 Z " /><path fill="rgb(197,197,197)" stroke="rgb(197,197,197)" stroke-width="1" opacity="1" d="M 264.5 513 L 268 513.5 L 264.5 514 L 264.5 513 Z " /><path fill="rgb(197,197,197)" stroke="rgb(197,197,197)" stroke-width="1" opacity="1" d="M 337.5 513 L 352 513.5 L 337.5 514 L 337.5 513 Z " /><path fill="rgb(197,197,197)" stroke="rgb(197,197,197)" stroke-width="1" opacity="1" d="M 400.5 513 L 410 513.5 L 400 514 L 400 552.5 L 400.5 553 L 410.5 553 L 410.5 554 L 400.5 554 L 399 552.5 L 399 514.5 L 400.5 513 Z " /><path fill="rgb(197,197,197)" stroke="rgb(197,197,197)" stroke-width="1" opacity="1" d="M 441.5 513 L 456 513.5 L 441.5 514 L 441.5 513 Z " /><path fill="rgb(197,197,197)" stroke="rgb(197,197,197)" stroke-width="1" opacity="1" d="M 517.5 513 L 522 513.5 L 517 514 L 517 552.5 Q 517 553.5 521.5 553 L 521.5 554 Q 517 555 516 552.5 L 516 514.5 L 517.5 513 Z " /><path fill="rgb(197,197,197)" stroke="rgb(197,197,197)" stroke-width="1" opacity="1" d="M 585.5 513 L 589 513.5 L 585.5 514 L 585.5 513 Z " /><path fill="rgb(197,197,197)" stroke="rgb(197,197,197)" stroke-width="1" opacity="1" d="M 599.5 513 L 604 513.5 L 599 514 L 598.5 538 L 597 535.5 L 598 534.5 L 598 514.5 L 599.5 513 Z " /><path fill="rgb(197,197,197)" stroke="rgb(197,197,197)" stroke-width="1" opacity="1" d="M 480.5 514 L 478.5 517 L 480.5 514 Z " /><path fill="rgb(197,197,197)" stroke="rgb(197,197,197)" stroke-width="1" opacity="1" d="M 299.5 515 L 298.5 517 L 299.5 515 Z " /><path fill="rgb(197,197,197)" stroke="rgb(197,197,197)" stroke-width="1" opacity="1" d="M 560.5 516 L 561.5 518 L 560.5 516 Z " /><path fill="rgb(197,197,197)" stroke="rgb(197,197,197)" stroke-width="1" opacity="1" d="M 188.5 518 L 191 518.5 L 188.5 519 L 188.5 518 Z " /><path fill="rgb(197,197,197)" stroke="rgb(197,197,197)" stroke-width="1" opacity="1" d="M 305.5 518 L 309 519.5 L 307.5 519 Q 304.5 519.5 305.5 518 Z " /><path fill="rgb(197,197,197)" stroke="rgb(197,197,197)" stroke-width="1" opacity="1" d="M 484.5 518 L 487 518.5 L 484.5 519 L 484.5 518 Z " /><path fill="rgb(197,197,197)" stroke="rgb(197,197,197)" stroke-width="1" opacity="1" d="M 552.5 518 L 555 518.5 L 552.5 519 L 552.5 518 Z " /><path fill="rgb(197,197,197)" stroke="rgb(197,197,197)" stroke-width="1" opacity="1" d="M 489.5 521 L 490 524 L 495 524.5 L 490.5 525 Q 488 524 489.5 521 Z " /><path fill="rgb(197,197,197)" stroke="rgb(197,197,197)" stroke-width="1" opacity="1" d="M 185.5 522 L 186 525.5 L 185 525.5 L 185.5 522 Z " /><path fill="rgb(197,197,197)" stroke="rgb(197,197,197)" stroke-width="1" opacity="1" d="M 549.5 522 L 550 524.5 L 549 524.5 L 549.5 522 Z " /><path fill="rgb(197,197,197)" stroke="rgb(197,197,197)" stroke-width="1" opacity="1" d="M 194.5 524 L 198 524.5 L 194.5 525 L 194.5 524 Z " /><path fill="rgb(197,197,197)" stroke="rgb(197,197,197)" stroke-width="1" opacity="1" d="M 233.5 524 L 234 526.5 L 233 526.5 L 233.5 524 Z " /><path fill="rgb(197,197,197)" stroke="rgb(197,197,197)" stroke-width="1" opacity="1" d="M 543.5 524 L 544 542.5 L 543 542.5 L 543.5 524 Z " /><path fill="rgb(197,197,197)" stroke="rgb(197,197,197)" stroke-width="1" opacity="1" d="M 232.5 530 L 231.5 532 L 232.5 530 Z " /><path fill="rgb(197,197,197)" stroke="rgb(197,197,197)" stroke-width="1" opacity="1" d="M 181.5 531 L 182.5 533 L 181.5 531 Z " /><path fill="rgb(197,197,197)" stroke="rgb(197,197,197)" stroke-width="1" opacity="1" d="M 195.5 532 L 197.5 535 L 195.5 532 Z " /><path fill="rgb(197,197,197)" stroke="rgb(197,197,197)" stroke-width="1" opacity="1" d="M 301.5 532 L 302 534.5 L 301 534.5 L 301.5 532 Z " /><path fill="rgb(197,197,197)" stroke="rgb(197,197,197)" stroke-width="1" opacity="1" d="M 237.5 533 L 235.5 536 L 237.5 533 Z " /><path fill="rgb(197,197,197)" stroke="rgb(197,197,197)" stroke-width="1" opacity="1" d="M 487.5 536 L 488.5 538 L 487.5 536 Z " /><path fill="rgb(197,197,197)" stroke="rgb(197,197,197)" stroke-width="1" opacity="1" d="M 553.5 536 L 557 536.5 L 553.5 537 L 553.5 536 Z " /><path fill="rgb(197,197,197)" stroke="rgb(197,197,197)" stroke-width="1" opacity="1" d="M 489.5 539 L 490 545.5 L 489 545.5 L 489.5 539 Z " /><path fill="rgb(197,197,197)" stroke="rgb(197,197,197)" stroke-width="1" opacity="1" d="M 180.5 542 L 185 542.5 L 180 543 L 179.5 546 L 179 543.5 L 180.5 542 Z " /><path fill="rgb(197,197,197)" stroke="rgb(197,197,197)" stroke-width="1" opacity="1" d="M 476.5 542 Q 481 541 482 543.5 L 481.5 545 L 481 543 L 476.5 543 L 476.5 542 Z " /><path fill="rgb(197,197,197)" stroke="rgb(197,197,197)" stroke-width="1" opacity="1" d="M 549.5 542 L 550 544.5 L 549 544.5 L 549.5 542 Z " /><path fill="rgb(197,197,197)" stroke="rgb(197,197,197)" stroke-width="1" opacity="1" d="M 185.5 545 L 187.5 548 L 191 548.5 L 187.5 549 Q 183.9 547.9 185.5 545 Z " /><path fill="rgb(197,197,197)" stroke="rgb(197,197,197)" stroke-width="1" opacity="1" d="M 550.5 547 L 551.5 549 L 550.5 547 Z " /><path fill="rgb(197,197,197)" stroke="rgb(197,197,197)" stroke-width="1" opacity="1" d="M 342.5 548 L 352 548.5 L 342.5 549 L 342.5 548 Z " /><path fill="rgb(197,197,197)" stroke="rgb(197,197,197)" stroke-width="1" opacity="1" d="M 405.5 548 L 409 548.5 L 405.5 549 L 405.5 548 Z " /><path fill="rgb(197,197,197)" stroke="rgb(197,197,197)" stroke-width="1" opacity="1" d="M 446.5 548 L 456 548.5 L 446.5 549 L 446.5 548 Z " /><path fill="rgb(197,197,197)" stroke="rgb(197,197,197)" stroke-width="1" opacity="1" d="M 484.5 548 L 487 548.5 L 484.5 549 L 484.5 548 Z " /><path fill="rgb(197,197,197)" stroke="rgb(197,197,197)" stroke-width="1" opacity="1" d="M 180.5 549 L 181.5 551 L 180.5 549 Z " /><path fill="rgb(197,197,197)" stroke="rgb(197,197,197)" stroke-width="1" opacity="1" d="M 298.5 550 L 300.5 553 L 298.5 550 Z " /><path fill="rgb(197,197,197)" stroke="rgb(197,197,197)" stroke-width="1" opacity="1" d="M 477.5 550 L 479.5 553 L 477.5 550 Z " /><path fill="rgb(197,197,197)" stroke="rgb(197,197,197)" stroke-width="1" opacity="1" d="M 493.5 550 L 491.5 553 L 493.5 550 Z " /><path fill="rgb(197,197,197)" stroke="rgb(197,197,197)" stroke-width="1" opacity="1" d="M 254.5 551 L 255 553 L 260 553.5 L 255.5 554 L 254.5 551 Z " /><path fill="rgb(197,197,197)" stroke="rgb(197,197,197)" stroke-width="1" opacity="1" d="M 221.5 553 L 225 553.5 L 221.5 554 L 221.5 553 Z " /><path fill="rgb(197,197,197)" stroke="rgb(197,197,197)" stroke-width="1" opacity="1" d="M 272.5 553 L 277 553.5 L 272.5 554 L 272.5 553 Z " /><path fill="rgb(197,197,197)" stroke="rgb(197,197,197)" stroke-width="1" opacity="1" d="M 337.5 553 L 352 553.5 L 337.5 554 L 337.5 553 Z " /><path fill="rgb(197,197,197)" stroke="rgb(197,197,197)" stroke-width="1" opacity="1" d="M 441.5 553 L 456 553.5 L 441.5 554 L 441.5 553 Z " /><path fill="rgb(197,197,197)" stroke="rgb(197,197,197)" stroke-width="1" opacity="1" d="M 585.5 553 L 589 553.5 L 585.5 554 L 585.5 553 Z " /><path fill="rgb(197,197,197)" stroke="rgb(197,197,197)" stroke-width="1" opacity="1" d="M 599.5 553 L 604 553.5 L 599.5 554 L 599.5 553 Z " /><path fill="rgb(197,197,197)" stroke="rgb(197,197,197)" stroke-width="1" opacity="1" d="M 327.5 577 L 338 577.5 L 327.5 578 L 327.5 577 Z " /><path fill="rgb(197,197,197)" stroke="rgb(197,197,197)" stroke-width="1" opacity="1" d="M 252.5 578 L 256.5 583 L 252.5 578 Z " /><path fill="rgb(197,197,197)" stroke="rgb(197,197,197)" stroke-width="1" opacity="1" d="M 576.5 578 L 586.5 578 L 588 579.5 L 587.5 583 L 587 579 L 576.5 579 L 576.5 578 Z " /><path fill="rgb(197,197,197)" stroke="rgb(197,197,197)" stroke-width="1" opacity="1" d="M 236.5 580 L 239 580.5 L 236.5 581 L 236.5 580 Z " /><path fill="rgb(197,197,197)" stroke="rgb(197,197,197)" stroke-width="1" opacity="1" d="M 338.5 580 L 339 583.5 L 338 583.5 L 338.5 580 Z " /><path fill="rgb(197,197,197)" stroke="rgb(197,197,197)" stroke-width="1" opacity="1" d="M 413.5 580 L 436 580.5 L 413.5 581 L 413.5 580 Z " /><path fill="rgb(197,197,197)" stroke="rgb(197,197,197)" stroke-width="1" opacity="1" d="M 526.5 580 L 526 581.5 L 525.5 590 L 525 581.5 L 526.5 580 Z " /><path fill="rgb(197,197,197)" stroke="rgb(197,197,197)" stroke-width="1" opacity="1" d="M 213.5 581 L 229 581.5 L 213.5 582 L 213.5 581 Z " /><path fill="rgb(197,197,197)" stroke="rgb(197,197,197)" stroke-width="1" opacity="1" d="M 205.5 582 L 206.5 584 L 205.5 582 Z " /><path fill="rgb(197,197,197)" stroke="rgb(197,197,197)" stroke-width="1" opacity="1" d="M 370.5 583 L 373 584.5 L 371.5 584 L 370.5 583 Z " /><path fill="rgb(197,197,197)" stroke="rgb(197,197,197)" stroke-width="1" opacity="1" d="M 447.5 583 L 448 591.5 L 447 591.5 L 447.5 583 Z " /><path fill="rgb(197,197,197)" stroke="rgb(197,197,197)" stroke-width="1" opacity="1" d="M 246.5 587 L 250 587.5 L 247.5 589 L 246.5 587 Z " /><path fill="rgb(197,197,197)" stroke="rgb(197,197,197)" stroke-width="1" opacity="1" d="M 239.5 588 L 242 588.5 L 239.5 589 L 239.5 588 Z " /><path fill="rgb(197,197,197)" stroke="rgb(197,197,197)" stroke-width="1" opacity="1" d="M 253.5 588 L 255.5 591 L 253.5 588 Z " /><path fill="rgb(197,197,197)" stroke="rgb(197,197,197)" stroke-width="1" opacity="1" d="M 189 589 L 197 589.5 L 190 590 L 190 606.5 L 191 607.5 L 190 608.5 L 189.5 632 L 189 589 Z " /><path fill="rgb(197,197,197)" stroke="rgb(197,197,197)" stroke-width="1" opacity="1" d="M 227.5 589 L 229 589.5 L 225.5 592 L 227.5 589 Z " /><path fill="rgb(197,197,197)" stroke="rgb(197,197,197)" stroke-width="1" opacity="1" d="M 234.5 589 L 235.5 591 L 234.5 589 Z " /><path fill="rgb(197,197,197)" stroke="rgb(197,197,197)" stroke-width="1" opacity="1" d="M 245.5 589 L 244.5 591 L 245.5 589 Z " /><path fill="rgb(197,197,197)" stroke="rgb(197,197,197)" stroke-width="1" opacity="1" d="M 410.5 589 L 416 589.5 L 410.5 590 L 410.5 589 Z " /><path fill="rgb(197,197,197)" stroke="rgb(197,197,197)" stroke-width="1" opacity="1" d="M 433.5 589 L 438 589.5 L 433.5 590 L 433.5 589 Z " /><path fill="rgb(197,197,197)" stroke="rgb(197,197,197)" stroke-width="1" opacity="1" d="M 457.5 590 L 466 590.5 L 457.5 591 L 457.5 590 Z " /><path fill="rgb(197,197,197)" stroke="rgb(197,197,197)" stroke-width="1" opacity="1" d="M 206.5 593 L 205.5 595 L 206.5 593 Z " /><path fill="rgb(197,197,197)" stroke="rgb(197,197,197)" stroke-width="1" opacity="1" d="M 257.5 593 L 258.5 595 L 257.5 593 Z " /><path fill="rgb(197,197,197)" stroke="rgb(197,197,197)" stroke-width="1" opacity="1" d="M 305.5 593 L 306 595.5 L 305 595.5 L 305.5 593 Z " /><path fill="rgb(197,197,197)" stroke="rgb(197,197,197)" stroke-width="1" opacity="1" d="M 525.5 593 L 558 593.5 L 525.5 594 L 525.5 593 Z " /><path fill="rgb(197,197,197)" stroke="rgb(197,197,197)" stroke-width="1" opacity="1" d="M 259.5 596 L 260.5 598 L 259.5 596 Z " /><path fill="rgb(197,197,197)" stroke="rgb(197,197,197)" stroke-width="1" opacity="1" d="M 481.5 596 L 482 599.5 L 481 599.5 L 481.5 596 Z " /><path fill="rgb(197,197,197)" stroke="rgb(197,197,197)" stroke-width="1" opacity="1" d="M 249.5 598 Q 252.2 599.3 250 600.5 L 249.5 604 L 249.5 598 Z " /><path fill="rgb(197,197,197)" stroke="rgb(197,197,197)" stroke-width="1" opacity="1" d="M 490.5 598 L 491 600.5 L 490 600.5 L 490.5 598 Z " /><path fill="rgb(197,197,197)" stroke="rgb(197,197,197)" stroke-width="1" opacity="1" d="M 206.5 600 L 209.5 604 L 206.5 600 Z " /><path fill="rgb(197,197,197)" stroke="rgb(197,197,197)" stroke-width="1" opacity="1" d="M 213.5 600 L 214 602.5 L 212 601.5 L 213.5 600 Z " /><path fill="rgb(197,197,197)" stroke="rgb(197,197,197)" stroke-width="1" opacity="1" d="M 410.5 602 L 439 602.5 L 410.5 603 L 410.5 602 Z " /><path fill="rgb(197,197,197)" stroke="rgb(197,197,197)" stroke-width="1" opacity="1" d="M 527.5 602 L 557 602.5 L 527.5 603 L 527.5 602 Z " /><path fill="rgb(197,197,197)" stroke="rgb(197,197,197)" stroke-width="1" opacity="1" d="M 315.5 603 L 328 603.5 L 315 604 L 315.5 606 L 327.5 606 L 327.5 607 L 315.5 607 L 314 605.5 L 315.5 603 Z " /><path fill="rgb(197,197,197)" stroke="rgb(197,197,197)" stroke-width="1" opacity="1" d="M 352.5 603 L 353 606.5 L 352 606.5 L 352.5 603 Z " /><path fill="rgb(197,197,197)" stroke="rgb(197,197,197)" stroke-width="1" opacity="1" d="M 226.5 604 L 225.5 606 L 208 605.5 L 225.5 605 L 226.5 604 Z " /><path fill="rgb(197,197,197)" stroke="rgb(197,197,197)" stroke-width="1" opacity="1" d="M 251.5 605 L 256 605.5 L 251.5 606 L 251.5 605 Z " /><path fill="rgb(197,197,197)" stroke="rgb(197,197,197)" stroke-width="1" opacity="1" d="M 205.5 606 L 206 612 L 258 612.5 L 206.5 613 Q 203.4 611.4 205.5 606 Z " /><path fill="rgb(197,197,197)" stroke="rgb(197,197,197)" stroke-width="1" opacity="1" d="M 412.5 606 L 437 606.5 L 412.5 607 L 412.5 606 Z " /><path fill="rgb(197,197,197)" stroke="rgb(197,197,197)" stroke-width="1" opacity="1" d="M 438 610 L 440 610.5 L 437.5 616 L 438 614.5 L 438 610 Z " /><path fill="rgb(197,197,197)" stroke="rgb(197,197,197)" stroke-width="1" opacity="1" d="M 442.5 612 L 443.5 614 L 442.5 612 Z " /><path fill="rgb(197,197,197)" stroke="rgb(197,197,197)" stroke-width="1" opacity="1" d="M 352.5 613 L 353 616.5 L 352 616.5 L 352.5 613 Z " /><path fill="rgb(197,197,197)" stroke="rgb(197,197,197)" stroke-width="1" opacity="1" d="M 314.5 614 L 315 616 L 328 616.5 L 315.5 617 L 314.5 614 Z " /><path fill="rgb(197,197,197)" stroke="rgb(197,197,197)" stroke-width="1" opacity="1" d="M 444.5 615 L 477 615.5 L 444.5 616 L 444.5 615 Z " /><path fill="rgb(197,197,197)" stroke="rgb(197,197,197)" stroke-width="1" opacity="1" d="M 480.5 615 L 484.5 620 L 480.5 615 Z " /><path fill="rgb(197,197,197)" stroke="rgb(197,197,197)" stroke-width="1" opacity="1" d="M 566.5 615 L 576 615.5 L 566.5 616 L 566.5 615 Z " /><path fill="rgb(197,197,197)" stroke="rgb(197,197,197)" stroke-width="1" opacity="1" d="M 593.5 615 L 601 615.5 L 593.5 616 L 593.5 615 Z " /><path fill="rgb(197,197,197)" stroke="rgb(197,197,197)" stroke-width="1" opacity="1" d="M 438.5 619 L 439 627.5 L 438 627.5 L 438.5 619 Z " /><path fill="rgb(197,197,197)" stroke="rgb(197,197,197)" stroke-width="1" opacity="1" d="M 205.5 621 L 206.5 622 L 244.5 622 L 246 621.5 L 244.5 623 L 206.5 623 L 205.5 621 Z " /><path fill="rgb(197,197,197)" stroke="rgb(197,197,197)" stroke-width="1" opacity="1" d="M 260.5 623 L 261 628.5 Q 260.3 630.8 256.5 630 L 256.5 629 L 260 629 L 260.5 623 Z " /><path fill="rgb(197,197,197)" stroke="rgb(197,197,197)" stroke-width="1" opacity="1" d="M 196.5 624 L 197 628.5 L 196 628.5 L 196.5 624 Z " /><path fill="rgb(197,197,197)" stroke="rgb(197,197,197)" stroke-width="1" opacity="1" d="M 306.5 624 L 328 624.5 L 306.5 625 L 306.5 624 Z " /><path fill="rgb(197,197,197)" stroke="rgb(197,197,197)" stroke-width="1" opacity="1" d="M 355.5 624 L 362 624.5 L 355.5 625 L 355.5 624 Z " /><path fill="rgb(197,197,197)" stroke="rgb(197,197,197)" stroke-width="1" opacity="1" d="M 297.5 627 L 301 627.5 L 297.5 628 L 297.5 627 Z " /><path fill="rgb(197,197,197)" stroke="rgb(197,197,197)" stroke-width="1" opacity="1" d="M 365.5 627 L 369 627.5 L 365.5 628 L 365.5 627 Z " /><path fill="rgb(197,197,197)" stroke="rgb(197,197,197)" stroke-width="1" opacity="1" d="M 469.5 629 L 468.5 631 L 469.5 629 Z " /><path fill="rgb(197,197,197)" stroke="rgb(197,197,197)" stroke-width="1" opacity="1" d="M 210.5 630 L 210 631.5 L 209.5 638 L 209 631.5 L 210.5 630 Z " /><path fill="rgb(197,197,197)" stroke="rgb(197,197,197)" stroke-width="1" opacity="1" d="M 410.5 631 L 438 631.5 L 410.5 632 L 410.5 631 Z " /><path fill="rgb(197,197,197)" stroke="rgb(197,197,197)" stroke-width="1" opacity="1" d="M 467.5 632 L 465.5 635 L 467.5 632 Z " /><path fill="rgb(197,197,197)" stroke="rgb(197,197,197)" stroke-width="1" opacity="1" d="M 189.5 633 L 191 638.5 L 190 639.5 L 189.5 658 L 189.5 633 Z " /><path fill="rgb(197,197,197)" stroke="rgb(197,197,197)" stroke-width="1" opacity="1" d="M 438.5 633 L 439 650.5 L 438 650.5 L 438.5 633 Z " /><path fill="rgb(197,197,197)" stroke="rgb(197,197,197)" stroke-width="1" opacity="1" d="M 461.5 634 L 463.5 637 L 461.5 634 Z " /><path fill="rgb(197,197,197)" stroke="rgb(197,197,197)" stroke-width="1" opacity="1" d="M 557.5 635 L 558 656.5 L 557 656.5 L 557.5 635 Z " /><path fill="rgb(197,197,197)" stroke="rgb(197,197,197)" stroke-width="1" opacity="1" d="M 308.5 636 L 328 636.5 L 308 637 L 307.5 655 L 307 637.5 L 308.5 636 Z " /><path fill="rgb(197,197,197)" stroke="rgb(197,197,197)" stroke-width="1" opacity="1" d="M 359.5 636 L 360 649.5 L 359 649.5 L 359.5 636 Z " /><path fill="rgb(197,197,197)" stroke="rgb(197,197,197)" stroke-width="1" opacity="1" d="M 452.5 638 L 453.5 640 L 452.5 638 Z " /><path fill="rgb(197,197,197)" stroke="rgb(197,197,197)" stroke-width="1" opacity="1" d="M 215.5 639 L 223.5 639 L 225 640.5 L 224.5 642 L 224 640 L 215.5 640 L 215.5 639 Z " /><path fill="rgb(197,197,197)" stroke="rgb(197,197,197)" stroke-width="1" opacity="1" d="M 474.5 639 L 473.5 641 L 474.5 639 Z " /><path fill="rgb(197,197,197)" stroke="rgb(197,197,197)" stroke-width="1" opacity="1" d="M 344.5 640 L 343.5 642 L 341 641.5 L 344.5 640 Z " /><path fill="rgb(197,197,197)" stroke="rgb(197,197,197)" stroke-width="1" opacity="1" d="M 420.5 640 L 429 640.5 L 420 641 L 419.5 648 L 419 641.5 L 420.5 640 Z " /><path fill="rgb(197,197,197)" stroke="rgb(197,197,197)" stroke-width="1" opacity="1" d="M 547.5 641 L 548 649 L 536 648.5 L 547 648 L 547.5 641 Z " /><path fill="rgb(197,197,197)" stroke="rgb(197,197,197)" stroke-width="1" opacity="1" d="M 311.5 643 L 321 643.5 L 311.5 644 L 311.5 643 Z " /><path fill="rgb(197,197,197)" stroke="rgb(197,197,197)" stroke-width="1" opacity="1" d="M 246.5 645 Q 249.5 646.5 246.5 648 L 245 647.5 L 247 646.5 L 246.5 645 Z " /><path fill="rgb(197,197,197)" stroke="rgb(197,197,197)" stroke-width="1" opacity="1" d="M 230.5 646 L 231.5 648 L 230.5 646 Z " /><path fill="rgb(197,197,197)" stroke="rgb(197,197,197)" stroke-width="1" opacity="1" d="M 236.5 646 L 235.5 648 L 236.5 646 Z " /><path fill="rgb(197,197,197)" stroke="rgb(197,197,197)" stroke-width="1" opacity="1" d="M 347.5 650 L 350 650.5 L 347.5 651 L 347.5 650 Z " /><path fill="rgb(197,197,197)" stroke="rgb(197,197,197)" stroke-width="1" opacity="1" d="M 198.5 651 L 197 653.5 L 196.5 655 L 196 653.5 L 198.5 651 Z " /><path fill="rgb(197,197,197)" stroke="rgb(197,197,197)" stroke-width="1" opacity="1" d="M 226.5 651 L 231 651.5 L 226.5 652 L 226.5 651 Z " /><path fill="rgb(197,197,197)" stroke="rgb(197,197,197)" stroke-width="1" opacity="1" d="M 232.5 651 L 236 651.5 L 232.5 652 L 232.5 651 Z " /><path fill="rgb(197,197,197)" stroke="rgb(197,197,197)" stroke-width="1" opacity="1" d="M 329.5 651 L 332 651.5 L 329.5 652 L 329.5 651 Z " /><path fill="rgb(197,197,197)" stroke="rgb(197,197,197)" stroke-width="1" opacity="1" d="M 321.5 652 L 324 652.5 L 321.5 653 L 321.5 652 Z " /><path fill="rgb(197,197,197)" stroke="rgb(197,197,197)" stroke-width="1" opacity="1" d="M 438.5 655 L 439 657.5 L 438 657.5 L 438.5 655 Z " /><path fill="rgb(197,197,197)" stroke="rgb(197,197,197)" stroke-width="1" opacity="1" d="M 179.5 656 L 180 659.5 L 179 659.5 L 179.5 656 Z " /><path fill="rgb(197,197,197)" stroke="rgb(197,197,197)" stroke-width="1" opacity="1" d="M 199.5 656 L 200.5 658 L 199.5 656 Z " /><path fill="rgb(197,197,197)" stroke="rgb(197,197,197)" stroke-width="1" opacity="1" d="M 587.5 656 L 588 659.5 L 587 659.5 L 587.5 656 Z " /><path fill="rgb(197,197,197)" stroke="rgb(197,197,197)" stroke-width="1" opacity="1" d="M 419.5 657 L 420 660.5 L 418.5 662 L 410.5 662 L 409 659.5 L 410 659.5 L 410.5 661 L 419 661 L 419.5 657 Z " /><path fill="rgb(197,197,197)" stroke="rgb(197,197,197)" stroke-width="1" opacity="1" d="M 536.5 657 L 547.5 657 L 548 659.5 L 547 659.5 L 546.5 658 L 536.5 658 L 536.5 657 Z " /><path fill="rgb(197,197,197)" stroke="rgb(197,197,197)" stroke-width="1" opacity="1" d="M 525.5 660 L 526.5 661 L 536 661.5 L 526.5 662 L 525.5 660 Z " /><path fill="rgb(197,197,197)" stroke="rgb(197,197,197)" stroke-width="1" opacity="1" d="M 576.5 661 L 587 661.5 L 576.5 662 L 576.5 661 Z " /><path fill="rgb(84,84,84)" stroke="rgb(84,84,84)" stroke-width="1" opacity="1" d="M 338.5 128 L 353 128.5 L 338.5 129 L 338.5 128 Z " /><path fill="rgb(84,84,84)" stroke="rgb(84,84,84)" stroke-width="1" opacity="1" d="M 525.5 128 L 532 128.5 L 525.5 129 L 525.5 128 Z " /><path fill="rgb(84,84,84)" stroke="rgb(84,84,84)" stroke-width="1" opacity="1" d="M 533.5 128 L 540 128.5 L 533.5 129 L 533.5 128 Z " /><path fill="rgb(84,84,84)" stroke="rgb(84,84,84)" stroke-width="1" opacity="1" d="M 357.5 129 L 360 129.5 L 357.5 130 L 357.5 129 Z " /><path fill="rgb(84,84,84)" stroke="rgb(84,84,84)" stroke-width="1" opacity="1" d="M 306.5 139 L 305.5 141 L 306.5 139 Z " /><path fill="rgb(84,84,84)" stroke="rgb(84,84,84)" stroke-width="1" opacity="1" d="M 384.5 140 L 385.5 142 L 384.5 140 Z " /><path fill="rgb(84,84,84)" stroke="rgb(84,84,84)" stroke-width="1" opacity="1" d="M 490.5 141 L 489.5 143 L 490.5 141 Z " /><path fill="rgb(84,84,84)" stroke="rgb(84,84,84)" stroke-width="1" opacity="1" d="M 572.5 141 L 573.5 143 L 572.5 141 Z " /><path fill="rgb(84,84,84)" stroke="rgb(84,84,84)" stroke-width="1" opacity="1" d="M 302.5 142 L 301.5 144 L 302.5 142 Z " /><path fill="rgb(84,84,84)" stroke="rgb(84,84,84)" stroke-width="1" opacity="1" d="M 388.5 143 L 389.5 145 L 388.5 143 Z " /><path fill="rgb(84,84,84)" stroke="rgb(84,84,84)" stroke-width="1" opacity="1" d="M 576.5 144 L 580.5 149 L 576.5 144 Z " /><path fill="rgb(84,84,84)" stroke="rgb(84,84,84)" stroke-width="1" opacity="1" d="M 485.5 145 L 480.5 151 L 485.5 145 Z " /><path fill="rgb(84,84,84)" stroke="rgb(84,84,84)" stroke-width="1" opacity="1" d="M 583.5 151 L 587.5 156 L 583.5 151 Z " /><path fill="rgb(84,84,84)" stroke="rgb(84,84,84)" stroke-width="1" opacity="1" d="M 292.5 152 L 290.5 155 L 292.5 152 Z " /><path fill="rgb(84,84,84)" stroke="rgb(84,84,84)" stroke-width="1" opacity="1" d="M 477.5 154 L 475.5 157 L 477.5 154 Z " /><path fill="rgb(84,84,84)" stroke="rgb(84,84,84)" stroke-width="1" opacity="1" d="M 400.5 155 L 402.5 158 L 400.5 155 Z " /><path fill="rgb(84,84,84)" stroke="rgb(84,84,84)" stroke-width="1" opacity="1" d="M 288.5 157 L 287.5 159 L 288.5 157 Z " /><path fill="rgb(84,84,84)" stroke="rgb(84,84,84)" stroke-width="1" opacity="1" d="M 474.5 158 L 473.5 160 L 474.5 158 Z " /><path fill="rgb(84,84,84)" stroke="rgb(84,84,84)" stroke-width="1" opacity="1" d="M 589.5 158 L 590.5 160 L 589.5 158 Z " /><path fill="rgb(84,84,84)" stroke="rgb(84,84,84)" stroke-width="1" opacity="1" d="M 329.5 175 L 328.5 177 L 329.5 175 Z " /><path fill="rgb(84,84,84)" stroke="rgb(84,84,84)" stroke-width="1" opacity="1" d="M 363.5 176 L 364.5 178 L 363.5 176 Z " /><path fill="rgb(84,84,84)" stroke="rgb(84,84,84)" stroke-width="1" opacity="1" d="M 513.5 177 L 509.5 182 L 513.5 177 Z " /><path fill="rgb(84,84,84)" stroke="rgb(84,84,84)" stroke-width="1" opacity="1" d="M 551.5 177 L 556.5 183 L 551.5 177 Z " /><path fill="rgb(84,84,84)" stroke="rgb(84,84,84)" stroke-width="1" opacity="1" d="M 321.5 183 L 320.5 185 L 321.5 183 Z " /><path fill="rgb(84,84,84)" stroke="rgb(84,84,84)" stroke-width="1" opacity="1" d="M 507.5 184 L 506.5 186 L 507.5 184 Z " /><path fill="rgb(84,84,84)" stroke="rgb(84,84,84)" stroke-width="1" opacity="1" d="M 602.5 187 L 603 189.5 L 602 189.5 L 602.5 187 Z " /><path fill="rgb(84,84,84)" stroke="rgb(84,84,84)" stroke-width="1" opacity="1" d="M 462.5 190 L 463 193.5 L 462 193.5 L 462.5 190 Z " /><path fill="rgb(84,84,84)" stroke="rgb(84,84,84)" stroke-width="1" opacity="1" d="M 416.5 192 L 417 197.5 L 416 197.5 L 416.5 192 Z " /><path fill="rgb(84,84,84)" stroke="rgb(84,84,84)" stroke-width="1" opacity="1" d="M 275.5 194 L 276 485.5 L 275 485.5 L 275.5 194 Z " /><path fill="rgb(84,84,84)" stroke="rgb(84,84,84)" stroke-width="1" opacity="1" d="M 316.5 194 L 317 196.5 L 316 196.5 L 316.5 194 Z " /><path fill="rgb(84,84,84)" stroke="rgb(84,84,84)" stroke-width="1" opacity="1" d="M 562.5 196 L 563 199.5 L 562 199.5 L 562.5 196 Z " /><path fill="rgb(84,84,84)" stroke="rgb(84,84,84)" stroke-width="1" opacity="1" d="M 304.5 513 L 308 513.5 L 304.5 514 L 304.5 513 Z " /><path fill="rgb(84,84,84)" stroke="rgb(84,84,84)" stroke-width="1" opacity="1" d="M 551.5 513 L 555 513.5 L 551.5 514 L 551.5 513 Z " /><path fill="rgb(84,84,84)" stroke="rgb(84,84,84)" stroke-width="1" opacity="1" d="M 220.5 514 L 221 552.5 L 220 552.5 L 220.5 514 Z " /><path fill="rgb(84,84,84)" stroke="rgb(84,84,84)" stroke-width="1" opacity="1" d="M 336.5 514 L 337 552.5 L 336 552.5 L 336.5 514 Z " /><path fill="rgb(84,84,84)" stroke="rgb(84,84,84)" stroke-width="1" opacity="1" d="M 440.5 514 L 441 552.5 L 440 552.5 L 440.5 514 Z " /><path fill="rgb(84,84,84)" stroke="rgb(84,84,84)" stroke-width="1" opacity="1" d="M 490.5 514 L 491.5 516 L 490.5 514 Z " /><path fill="rgb(84,84,84)" stroke="rgb(84,84,84)" stroke-width="1" opacity="1" d="M 584.5 514 L 585 552.5 L 584 552.5 L 584.5 514 Z " /><path fill="rgb(84,84,84)" stroke="rgb(84,84,84)" stroke-width="1" opacity="1" d="M 183.5 515 L 182.5 517 L 183.5 515 Z " /><path fill="rgb(84,84,84)" stroke="rgb(84,84,84)" stroke-width="1" opacity="1" d="M 195.5 515 L 196.5 517 L 195.5 515 Z " /><path fill="rgb(84,84,84)" stroke="rgb(84,84,84)" stroke-width="1" opacity="1" d="M 235.5 515 L 236.5 517 L 235.5 515 Z " /><path fill="rgb(84,84,84)" stroke="rgb(84,84,84)" stroke-width="1" opacity="1" d="M 414.5 515 L 416.5 518 L 414.5 515 Z " /><path fill="rgb(84,84,84)" stroke="rgb(84,84,84)" stroke-width="1" opacity="1" d="M 547.5 515 L 546.5 517 L 547.5 515 Z " /><path fill="rgb(84,84,84)" stroke="rgb(84,84,84)" stroke-width="1" opacity="1" d="M 191.5 518 L 192.5 520 L 191.5 518 Z " /><path fill="rgb(84,84,84)" stroke="rgb(84,84,84)" stroke-width="1" opacity="1" d="M 225 518 L 231 518.5 L 226 519 L 226 532 L 230.5 532 L 230.5 533 L 225 533 L 225 518 Z " /><path fill="rgb(84,84,84)" stroke="rgb(84,84,84)" stroke-width="1" opacity="1" d="M 342.5 518 L 352 518.5 L 342 519 L 341.5 531 L 341 519.5 L 342.5 518 Z " /><path fill="rgb(84,84,84)" stroke="rgb(84,84,84)" stroke-width="1" opacity="1" d="M 405.5 518 L 410 518.5 L 405.5 519 L 405.5 518 Z " /><path fill="rgb(84,84,84)" stroke="rgb(84,84,84)" stroke-width="1" opacity="1" d="M 446.5 518 L 456 518.5 L 446 519 L 445.5 531 L 445 519.5 L 446.5 518 Z " /><path fill="rgb(84,84,84)" stroke="rgb(84,84,84)" stroke-width="1" opacity="1" d="M 483.5 518 L 482.5 520 L 483.5 518 Z " /><path fill="rgb(84,84,84)" stroke="rgb(84,84,84)" stroke-width="1" opacity="1" d="M 487.5 518 L 489.5 521 L 487.5 518 Z " /><path fill="rgb(84,84,84)" stroke="rgb(84,84,84)" stroke-width="1" opacity="1" d="M 555.5 518 L 556.5 520 L 555.5 518 Z " /><path fill="rgb(84,84,84)" stroke="rgb(84,84,84)" stroke-width="1" opacity="1" d="M 193.5 521 L 194 523.5 L 193 523.5 L 193.5 521 Z " /><path fill="rgb(84,84,84)" stroke="rgb(84,84,84)" stroke-width="1" opacity="1" d="M 198.5 521 L 199 523.5 L 198 523.5 L 198.5 521 Z " /><path fill="rgb(84,84,84)" stroke="rgb(84,84,84)" stroke-width="1" opacity="1" d="M 233.5 521 L 234 523.5 L 233 523.5 L 233.5 521 Z " /><path fill="rgb(84,84,84)" stroke="rgb(84,84,84)" stroke-width="1" opacity="1" d="M 238.5 521 L 239 524.5 L 238 524.5 L 238.5 521 Z " /><path fill="rgb(84,84,84)" stroke="rgb(84,84,84)" stroke-width="1" opacity="1" d="M 476.5 521 L 477 527.5 L 476 527.5 L 476.5 521 Z " /><path fill="rgb(84,84,84)" stroke="rgb(84,84,84)" stroke-width="1" opacity="1" d="M 481.5 521 L 482 526.5 L 481 526.5 L 481.5 521 Z " /><path fill="rgb(84,84,84)" stroke="rgb(84,84,84)" stroke-width="1" opacity="1" d="M 562.5 521 L 563 523.5 L 562 523.5 L 562.5 521 Z " /><path fill="rgb(84,84,84)" stroke="rgb(84,84,84)" stroke-width="1" opacity="1" d="M 296.5 523 L 297 531.5 L 296 531.5 L 296.5 523 Z " /><path fill="rgb(84,84,84)" stroke="rgb(84,84,84)" stroke-width="1" opacity="1" d="M 418.5 523 L 419 531.5 L 418 531.5 L 418.5 523 Z " /><path fill="rgb(84,84,84)" stroke="rgb(84,84,84)" stroke-width="1" opacity="1" d="M 265 524 Q 268 523 267 526 Q 264 527 265 524 Z " /><path fill="rgb(84,84,84)" stroke="rgb(84,84,84)" stroke-width="1" opacity="1" d="M 301.5 524 L 302 531.5 L 301 531.5 L 301.5 524 Z " /><path fill="rgb(84,84,84)" stroke="rgb(84,84,84)" stroke-width="1" opacity="1" d="M 413.5 524 L 414 532.5 L 413 532.5 L 413.5 524 Z " /><path fill="rgb(84,84,84)" stroke="rgb(84,84,84)" stroke-width="1" opacity="1" d="M 185.5 526 L 188 529.5 L 185 527.5 L 185.5 526 Z " /><path fill="rgb(84,84,84)" stroke="rgb(84,84,84)" stroke-width="1" opacity="1" d="M 238.5 526 L 239 529.5 L 238 529.5 L 238.5 526 Z " /><path fill="rgb(84,84,84)" stroke="rgb(84,84,84)" stroke-width="1" opacity="1" d="M 233.5 527 L 234 529.5 L 233 529.5 L 233.5 527 Z " /><path fill="rgb(84,84,84)" stroke="rgb(84,84,84)" stroke-width="1" opacity="1" d="M 589.5 527 L 591 529.5 L 590 530.5 L 589.5 553 L 589.5 527 Z " /><path fill="rgb(84,84,84)" stroke="rgb(84,84,84)" stroke-width="1" opacity="1" d="M 477.5 530 L 479.5 533 L 477.5 530 Z " /><path fill="rgb(84,84,84)" stroke="rgb(84,84,84)" stroke-width="1" opacity="1" d="M 350.5 531 L 351 535.5 L 350 535.5 L 350.5 531 Z " /><path fill="rgb(84,84,84)" stroke="rgb(84,84,84)" stroke-width="1" opacity="1" d="M 454.5 531 L 455 535.5 L 454 535.5 L 454.5 531 Z " /><path fill="rgb(84,84,84)" stroke="rgb(84,84,84)" stroke-width="1" opacity="1" d="M 562.5 532 L 563 545.5 L 562 545.5 L 562.5 532 Z " /><path fill="rgb(84,84,84)" stroke="rgb(84,84,84)" stroke-width="1" opacity="1" d="M 413.5 534 L 414 543.5 L 413 543.5 L 413.5 534 Z " /><path fill="rgb(84,84,84)" stroke="rgb(84,84,84)" stroke-width="1" opacity="1" d="M 296.5 535 L 297 543.5 L 296 543.5 L 296.5 535 Z " /><path fill="rgb(84,84,84)" stroke="rgb(84,84,84)" stroke-width="1" opacity="1" d="M 301.5 535 L 302 543.5 L 301 543.5 L 301.5 535 Z " /><path fill="rgb(84,84,84)" stroke="rgb(84,84,84)" stroke-width="1" opacity="1" d="M 418.5 535 L 419 543.5 L 418 543.5 L 418.5 535 Z " /><path fill="rgb(84,84,84)" stroke="rgb(84,84,84)" stroke-width="1" opacity="1" d="M 191.5 536 L 192.5 538 L 191.5 536 Z " /><path fill="rgb(84,84,84)" stroke="rgb(84,84,84)" stroke-width="1" opacity="1" d="M 341.5 536 L 342 548.5 L 341 548.5 L 341.5 536 Z " /><path fill="rgb(84,84,84)" stroke="rgb(84,84,84)" stroke-width="1" opacity="1" d="M 445.5 536 L 446 547.5 L 445 547.5 L 445.5 536 Z " /><path fill="rgb(84,84,84)" stroke="rgb(84,84,84)" stroke-width="1" opacity="1" d="M 557.5 536 L 558 545.5 L 557 545.5 L 557.5 536 Z " /><path fill="rgb(84,84,84)" stroke="rgb(84,84,84)" stroke-width="1" opacity="1" d="M 225.5 537 L 226 552.5 L 225 552.5 L 225.5 537 Z " /><path fill="rgb(84,84,84)" stroke="rgb(84,84,84)" stroke-width="1" opacity="1" d="M 198.5 538 L 199 541.5 L 198 541.5 L 198.5 538 Z " /><path fill="rgb(84,84,84)" stroke="rgb(84,84,84)" stroke-width="1" opacity="1" d="M 193.5 539 L 194 541.5 L 193 541.5 L 193.5 539 Z " /><path fill="rgb(84,84,84)" stroke="rgb(84,84,84)" stroke-width="1" opacity="1" d="M 263.5 539 L 269 539.5 L 263.5 540 L 263.5 539 Z " /><path fill="rgb(84,84,84)" stroke="rgb(84,84,84)" stroke-width="1" opacity="1" d="M 193.5 543 L 194 545.5 L 193 545.5 L 193.5 543 Z " /><path fill="rgb(84,84,84)" stroke="rgb(84,84,84)" stroke-width="1" opacity="1" d="M 198.5 543 L 199 546.5 L 198 546.5 L 198.5 543 Z " /><path fill="rgb(84,84,84)" stroke="rgb(84,84,84)" stroke-width="1" opacity="1" d="M 476.5 545 L 477 547.5 L 476 547.5 L 476.5 545 Z " /><path fill="rgb(84,84,84)" stroke="rgb(84,84,84)" stroke-width="1" opacity="1" d="M 556.5 547 L 555.5 549 L 556.5 547 Z " /><path fill="rgb(84,84,84)" stroke="rgb(84,84,84)" stroke-width="1" opacity="1" d="M 416.5 549 L 414.5 552 L 416.5 549 Z " /><path fill="rgb(84,84,84)" stroke="rgb(84,84,84)" stroke-width="1" opacity="1" d="M 545.5 549 L 548.5 553 L 545.5 549 Z " /><path fill="rgb(84,84,84)" stroke="rgb(84,84,84)" stroke-width="1" opacity="1" d="M 560.5 550 L 559.5 552 L 560.5 550 Z " /><path fill="rgb(84,84,84)" stroke="rgb(84,84,84)" stroke-width="1" opacity="1" d="M 195.5 551 L 194.5 553 L 195.5 551 Z " /><path fill="rgb(84,84,84)" stroke="rgb(84,84,84)" stroke-width="1" opacity="1" d="M 187.5 553 L 192 553.5 L 187.5 554 L 187.5 553 Z " /><path fill="rgb(84,84,84)" stroke="rgb(84,84,84)" stroke-width="1" opacity="1" d="M 304.5 553 L 309 553.5 L 304.5 554 L 304.5 553 Z " /><path fill="rgb(84,84,84)" stroke="rgb(84,84,84)" stroke-width="1" opacity="1" d="M 551.5 553 L 556 553.5 L 551.5 554 L 551.5 553 Z " /><path fill="rgb(84,84,84)" stroke="rgb(84,84,84)" stroke-width="1" opacity="1" d="M 327.5 579 L 328 581.5 L 327 581.5 L 327.5 579 Z " /><path fill="rgb(84,84,84)" stroke="rgb(84,84,84)" stroke-width="1" opacity="1" d="M 181.5 580 L 202 580.5 L 181.5 581 L 181.5 580 Z " /><path fill="rgb(84,84,84)" stroke="rgb(84,84,84)" stroke-width="1" opacity="1" d="M 203.5 580 L 204.5 582 L 203.5 580 Z " /><path fill="rgb(84,84,84)" stroke="rgb(84,84,84)" stroke-width="1" opacity="1" d="M 410.5 580 L 413 580.5 L 410.5 581 L 410.5 580 Z " /><path fill="rgb(84,84,84)" stroke="rgb(84,84,84)" stroke-width="1" opacity="1" d="M 436.5 580 L 439 581.5 L 438.5 589 L 438 581 L 436.5 580 Z " /><path fill="rgb(84,84,84)" stroke="rgb(84,84,84)" stroke-width="1" opacity="1" d="M 229.5 581 L 233 581.5 L 229.5 582 L 229.5 581 Z " /><path fill="rgb(84,84,84)" stroke="rgb(84,84,84)" stroke-width="1" opacity="1" d="M 576.5 582 L 577 606 L 564 605.5 L 576 605 L 576.5 582 Z " /><path fill="rgb(84,84,84)" stroke="rgb(84,84,84)" stroke-width="1" opacity="1" d="M 250.5 586 L 253 587.5 L 251.5 587 L 250.5 586 Z " /><path fill="rgb(84,84,84)" stroke="rgb(84,84,84)" stroke-width="1" opacity="1" d="M 295.5 586 L 296 600.5 L 295 600.5 L 295.5 586 Z " /><path fill="rgb(84,84,84)" stroke="rgb(84,84,84)" stroke-width="1" opacity="1" d="M 475.5 586 L 476 601.5 L 475 601.5 L 475.5 586 Z " /><path fill="rgb(84,84,84)" stroke="rgb(84,84,84)" stroke-width="1" opacity="1" d="M 236.5 588 L 239 588.5 L 236.5 589 L 236.5 588 Z " /><path fill="rgb(84,84,84)" stroke="rgb(84,84,84)" stroke-width="1" opacity="1" d="M 219.5 589 Q 226.3 587.3 228 590.5 L 226.5 590 L 219.5 590 L 219.5 589 Z " /><path fill="rgb(84,84,84)" stroke="rgb(84,84,84)" stroke-width="1" opacity="1" d="M 530.5 589 L 553 589.5 L 530.5 590 L 530.5 589 Z " /><path fill="rgb(84,84,84)" stroke="rgb(84,84,84)" stroke-width="1" opacity="1" d="M 245.5 591 L 246.5 593 L 245.5 591 Z " /><path fill="rgb(84,84,84)" stroke="rgb(84,84,84)" stroke-width="1" opacity="1" d="M 447.5 592 L 448 594.5 L 447 594.5 L 447.5 592 Z " /><path fill="rgb(84,84,84)" stroke="rgb(84,84,84)" stroke-width="1" opacity="1" d="M 407.5 593 L 408 602 L 410 602.5 L 408.5 603 L 407 601.5 L 407.5 593 Z " /><path fill="rgb(84,84,84)" stroke="rgb(84,84,84)" stroke-width="1" opacity="1" d="M 411.5 593 L 437 593.5 L 411.5 594 L 411.5 593 Z " /><path fill="rgb(84,84,84)" stroke="rgb(84,84,84)" stroke-width="1" opacity="1" d="M 440.5 593 L 441 601.5 L 439 602.5 L 440 601.5 L 440.5 593 Z " /><path fill="rgb(84,84,84)" stroke="rgb(84,84,84)" stroke-width="1" opacity="1" d="M 456.5 593 L 457 596.5 L 456 596.5 L 456.5 593 Z " /><path fill="rgb(84,84,84)" stroke="rgb(84,84,84)" stroke-width="1" opacity="1" d="M 558.5 593 L 561 594.5 Q 562.8 601.3 559.5 603 L 557 602.5 L 560 602 L 560 594.5 L 558.5 594 L 558.5 593 Z " /><path fill="rgb(84,84,84)" stroke="rgb(84,84,84)" stroke-width="1" opacity="1" d="M 205.5 595 L 204.5 597 L 205.5 595 Z " /><path fill="rgb(84,84,84)" stroke="rgb(84,84,84)" stroke-width="1" opacity="1" d="M 248.5 595 L 251 598.5 L 249 597.5 L 248.5 595 Z " /><path fill="rgb(84,84,84)" stroke="rgb(84,84,84)" stroke-width="1" opacity="1" d="M 489.5 595 L 491 597.5 L 490 597.5 L 489.5 595 Z " /><path fill="rgb(84,84,84)" stroke="rgb(84,84,84)" stroke-width="1" opacity="1" d="M 217.5 597 L 229 597.5 L 217.5 598 L 217.5 597 Z " /><path fill="rgb(84,84,84)" stroke="rgb(84,84,84)" stroke-width="1" opacity="1" d="M 241.5 597 L 246 597.5 L 241.5 598 L 241.5 597 Z " /><path fill="rgb(84,84,84)" stroke="rgb(84,84,84)" stroke-width="1" opacity="1" d="M 523.5 602 L 527 602.5 L 523.5 603 L 523.5 602 Z " /><path fill="rgb(84,84,84)" stroke="rgb(84,84,84)" stroke-width="1" opacity="1" d="M 214.5 603 L 227 603.5 L 214.5 604 L 214.5 603 Z " /><path fill="rgb(84,84,84)" stroke="rgb(84,84,84)" stroke-width="1" opacity="1" d="M 235.5 603 L 236 605.5 L 235 605.5 L 235.5 603 Z " /><path fill="rgb(84,84,84)" stroke="rgb(84,84,84)" stroke-width="1" opacity="1" d="M 241.5 603 L 249 603.5 L 241.5 604 L 241.5 603 Z " /><path fill="rgb(84,84,84)" stroke="rgb(84,84,84)" stroke-width="1" opacity="1" d="M 328.5 603 L 329 606.5 L 328 606.5 L 328.5 603 Z " /><path fill="rgb(84,84,84)" stroke="rgb(84,84,84)" stroke-width="1" opacity="1" d="M 295.5 604 L 305 604 L 305 622.5 L 304 622.5 L 304 605 L 295.5 605 L 295.5 604 Z " /><path fill="rgb(84,84,84)" stroke="rgb(84,84,84)" stroke-width="1" opacity="1" d="M 363.5 604 L 372 604.5 L 363 605 L 362.5 621 L 362 605.5 L 363.5 604 Z " /><path fill="rgb(84,84,84)" stroke="rgb(84,84,84)" stroke-width="1" opacity="1" d="M 443.5 604 L 442.5 606 L 443.5 604 Z " /><path fill="rgb(84,84,84)" stroke="rgb(84,84,84)" stroke-width="1" opacity="1" d="M 256.5 605 L 259 606.5 L 258.5 612 L 258 606 L 256.5 605 Z " /><path fill="rgb(84,84,84)" stroke="rgb(84,84,84)" stroke-width="1" opacity="1" d="M 593.5 605 L 600 605.5 L 593.5 606 L 593.5 605 Z " /><path fill="rgb(84,84,84)" stroke="rgb(84,84,84)" stroke-width="1" opacity="1" d="M 411.5 606 L 411 607.5 L 410.5 615 L 410 607.5 L 411.5 606 Z " /><path fill="rgb(84,84,84)" stroke="rgb(84,84,84)" stroke-width="1" opacity="1" d="M 526.5 606 L 557 606.5 L 526.5 607 L 526.5 606 Z " /><path fill="rgb(84,84,84)" stroke="rgb(84,84,84)" stroke-width="1" opacity="1" d="M 440.5 607 L 438.5 610 L 440.5 607 Z " /><path fill="rgb(84,84,84)" stroke="rgb(84,84,84)" stroke-width="1" opacity="1" d="M 467.5 609 L 468.5 611 L 467.5 609 Z " /><path fill="rgb(84,84,84)" stroke="rgb(84,84,84)" stroke-width="1" opacity="1" d="M 440.5 610 L 441.5 612 L 440.5 610 Z " /><path fill="rgb(84,84,84)" stroke="rgb(84,84,84)" stroke-width="1" opacity="1" d="M 450.5 611 L 447.5 615 L 450.5 611 Z " /><path fill="rgb(84,84,84)" stroke="rgb(84,84,84)" stroke-width="1" opacity="1" d="M 471.5 611 L 483 611.5 L 471.5 612 L 471.5 611 Z " /><path fill="rgb(84,84,84)" stroke="rgb(84,84,84)" stroke-width="1" opacity="1" d="M 314.5 613 L 328.5 613 L 329 616.5 L 328 616.5 L 327.5 614 L 314.5 614 L 314.5 613 Z " /><path fill="rgb(84,84,84)" stroke="rgb(84,84,84)" stroke-width="1" opacity="1" d="M 214.5 614 L 253 614.5 L 214.5 615 L 214.5 614 Z " /><path fill="rgb(84,84,84)" stroke="rgb(84,84,84)" stroke-width="1" opacity="1" d="M 442.5 615 L 444 615.5 L 442 616 L 441.5 625 L 441 616.5 L 442.5 615 Z " /><path fill="rgb(84,84,84)" stroke="rgb(84,84,84)" stroke-width="1" opacity="1" d="M 560.5 615 L 563 615.5 L 560.5 616 L 560.5 615 Z " /><path fill="rgb(84,84,84)" stroke="rgb(84,84,84)" stroke-width="1" opacity="1" d="M 576.5 615 L 577 656.5 L 576 656.5 L 576.5 615 Z " /><path fill="rgb(84,84,84)" stroke="rgb(84,84,84)" stroke-width="1" opacity="1" d="M 601.5 615 L 604 615.5 L 601.5 616 L 601.5 615 Z " /><path fill="rgb(84,84,84)" stroke="rgb(84,84,84)" stroke-width="1" opacity="1" d="M 254.5 616 L 255 622.5 L 254 622.5 L 254.5 616 Z " /><path fill="rgb(84,84,84)" stroke="rgb(84,84,84)" stroke-width="1" opacity="1" d="M 410.5 619 L 411 627 L 437 627.5 L 410 628 L 410.5 619 Z " /><path fill="rgb(84,84,84)" stroke="rgb(84,84,84)" stroke-width="1" opacity="1" d="M 413.5 619 L 435 619.5 L 413.5 620 L 413.5 619 Z " /><path fill="rgb(84,84,84)" stroke="rgb(84,84,84)" stroke-width="1" opacity="1" d="M 211.5 620 L 246 620.5 L 211.5 621 L 211.5 620 Z " /><path fill="rgb(84,84,84)" stroke="rgb(84,84,84)" stroke-width="1" opacity="1" d="M 256.5 622 L 260 622.5 L 256.5 623 L 256.5 622 Z " /><path fill="rgb(84,84,84)" stroke="rgb(84,84,84)" stroke-width="1" opacity="1" d="M 328.5 624 L 329 627.5 L 328 627.5 L 328.5 624 Z " /><path fill="rgb(84,84,84)" stroke="rgb(84,84,84)" stroke-width="1" opacity="1" d="M 528.5 627 L 555 627.5 L 528.5 628 L 528.5 627 Z " /><path fill="rgb(84,84,84)" stroke="rgb(84,84,84)" stroke-width="1" opacity="1" d="M 254.5 629 L 255 635.5 L 254 635.5 L 254.5 629 Z " /><path fill="rgb(84,84,84)" stroke="rgb(84,84,84)" stroke-width="1" opacity="1" d="M 190.5 631 L 195 631.5 L 189.5 633 L 190.5 631 Z " /><path fill="rgb(84,84,84)" stroke="rgb(84,84,84)" stroke-width="1" opacity="1" d="M 297.5 631 L 298 656.5 L 297 656.5 L 297.5 631 Z " /><path fill="rgb(84,84,84)" stroke="rgb(84,84,84)" stroke-width="1" opacity="1" d="M 459.5 632 L 460.5 634 L 459.5 632 Z " /><path fill="rgb(84,84,84)" stroke="rgb(84,84,84)" stroke-width="1" opacity="1" d="M 557.5 632 L 558 634.5 L 557 634.5 L 557.5 632 Z " /><path fill="rgb(84,84,84)" stroke="rgb(84,84,84)" stroke-width="1" opacity="1" d="M 369.5 633 L 370 654.5 L 369 654.5 L 369.5 633 Z " /><path fill="rgb(84,84,84)" stroke="rgb(84,84,84)" stroke-width="1" opacity="1" d="M 465.5 635 L 464.5 637 L 465.5 635 Z " /><path fill="rgb(84,84,84)" stroke="rgb(84,84,84)" stroke-width="1" opacity="1" d="M 328.5 636 L 329 642.5 L 328 642.5 L 328.5 636 Z " /><path fill="rgb(84,84,84)" stroke="rgb(84,84,84)" stroke-width="1" opacity="1" d="M 410.5 636 L 411 653.5 L 410 653.5 L 410.5 636 Z " /><path fill="rgb(84,84,84)" stroke="rgb(84,84,84)" stroke-width="1" opacity="1" d="M 526.5 636 L 527 655.5 L 526 655.5 L 526.5 636 Z " /><path fill="rgb(84,84,84)" stroke="rgb(84,84,84)" stroke-width="1" opacity="1" d="M 212.5 637 L 229 637.5 L 212.5 638 L 212.5 637 Z " /><path fill="rgb(84,84,84)" stroke="rgb(84,84,84)" stroke-width="1" opacity="1" d="M 232.5 637 L 238.5 644 L 232.5 637 Z " /><path fill="rgb(84,84,84)" stroke="rgb(84,84,84)" stroke-width="1" opacity="1" d="M 248.5 637 L 253 637.5 L 248.5 638 L 248.5 637 Z " /><path fill="rgb(84,84,84)" stroke="rgb(84,84,84)" stroke-width="1" opacity="1" d="M 225.5 639 L 231 645.5 L 225 640.5 L 225.5 639 Z " /><path fill="rgb(84,84,84)" stroke="rgb(84,84,84)" stroke-width="1" opacity="1" d="M 193.5 640 L 197 640.5 L 193.5 641 L 193.5 640 Z " /><path fill="rgb(84,84,84)" stroke="rgb(84,84,84)" stroke-width="1" opacity="1" d="M 429.5 640 L 430 649 L 419 648.5 L 429 648 L 429.5 640 Z " /><path fill="rgb(84,84,84)" stroke="rgb(84,84,84)" stroke-width="1" opacity="1" d="M 454.5 640 L 457 643.5 L 456 643.5 L 454.5 640 Z " /><path fill="rgb(84,84,84)" stroke="rgb(84,84,84)" stroke-width="1" opacity="1" d="M 536.5 640 L 548 640.5 L 536 641 L 535.5 649 L 535 641.5 L 536.5 640 Z " /><path fill="rgb(84,84,84)" stroke="rgb(84,84,84)" stroke-width="1" opacity="1" d="M 472.5 641 L 471.5 643 L 472.5 641 Z " /><path fill="rgb(84,84,84)" stroke="rgb(84,84,84)" stroke-width="1" opacity="1" d="M 245.5 643 L 246.5 645 L 245.5 643 Z " /><path fill="rgb(84,84,84)" stroke="rgb(84,84,84)" stroke-width="1" opacity="1" d="M 321.5 643 L 325 643.5 L 321.5 644 L 321.5 643 Z " /><path fill="rgb(84,84,84)" stroke="rgb(84,84,84)" stroke-width="1" opacity="1" d="M 215.5 644 L 216 654.5 L 215 654.5 L 215.5 644 Z " /><path fill="rgb(84,84,84)" stroke="rgb(84,84,84)" stroke-width="1" opacity="1" d="M 454.5 644 L 453.5 646 L 454.5 644 Z " /><path fill="rgb(84,84,84)" stroke="rgb(84,84,84)" stroke-width="1" opacity="1" d="M 311.5 646 L 312 648.5 L 311 648.5 L 311.5 646 Z " /><path fill="rgb(84,84,84)" stroke="rgb(84,84,84)" stroke-width="1" opacity="1" d="M 234.5 647 L 233.5 649 L 232 648.5 L 234.5 647 Z " /><path fill="rgb(84,84,84)" stroke="rgb(84,84,84)" stroke-width="1" opacity="1" d="M 347.5 648 L 350 649.5 L 348.5 649 L 347.5 648 Z " /><path fill="rgb(84,84,84)" stroke="rgb(84,84,84)" stroke-width="1" opacity="1" d="M 238.5 650 L 237.5 652 L 236 651.5 L 238.5 650 Z " /><path fill="rgb(84,84,84)" stroke="rgb(84,84,84)" stroke-width="1" opacity="1" d="M 465.5 650 L 466.5 652 L 465.5 650 Z " /><path fill="rgb(84,84,84)" stroke="rgb(84,84,84)" stroke-width="1" opacity="1" d="M 318.5 652 L 321 652.5 L 318.5 653 L 318.5 652 Z " /><path fill="rgb(84,84,84)" stroke="rgb(84,84,84)" stroke-width="1" opacity="1" d="M 197.5 654 L 198.5 656 L 197.5 654 Z " /><path fill="rgb(84,84,84)" stroke="rgb(84,84,84)" stroke-width="1" opacity="1" d="M 438.5 654 L 439.5 656 L 438.5 654 Z " /><path fill="rgb(84,84,84)" stroke="rgb(84,84,84)" stroke-width="1" opacity="1" d="M 307.5 655 L 308 659.5 L 307 659.5 L 307.5 655 Z " /><path fill="rgb(84,84,84)" stroke="rgb(84,84,84)" stroke-width="1" opacity="1" d="M 245.5 656 L 244.5 658 L 245.5 656 Z " /><path fill="rgb(84,84,84)" stroke="rgb(84,84,84)" stroke-width="1" opacity="1" d="M 205.5 657 L 204.5 659 L 205.5 657 Z " /><path fill="rgb(84,84,84)" stroke="rgb(84,84,84)" stroke-width="1" opacity="1" d="M 429.5 657 L 430 659.5 L 429 659.5 L 429.5 657 Z " /><path fill="rgb(84,84,84)" stroke="rgb(84,84,84)" stroke-width="1" opacity="1" d="M 557.5 657 L 558 659.5 L 557 659.5 L 557.5 657 Z " /><path fill="rgb(84,84,84)" stroke="rgb(84,84,84)" stroke-width="1" opacity="1" d="M 189.5 658 L 190 659.5 L 188.5 661 L 180.5 661 L 180.5 660 L 188.5 660 L 189.5 658 Z " /><path fill="rgb(84,84,84)" stroke="rgb(84,84,84)" stroke-width="1" opacity="1" d="M 221.5 659 L 229 659.5 L 221.5 660 L 221.5 659 Z " /><path fill="rgb(84,84,84)" stroke="rgb(84,84,84)" stroke-width="1" opacity="1" d="M 231.5 659 L 239 659.5 L 231.5 660 L 231.5 659 Z " /><path fill="rgb(84,84,84)" stroke="rgb(84,84,84)" stroke-width="1" opacity="1" d="M 360.5 659 L 364 659.5 L 360.5 660 L 360.5 659 Z " /><path fill="rgb(0,0,0)" stroke="rgb(0,0,0)" stroke-width="1" opacity="1" d="M 180 128 L 220.5 128 L 221 128.5 L 221 486 L 180.5 486 L 180 485.5 L 180 128 Z " /><path fill="rgb(0,0,0)" stroke="rgb(0,0,0)" stroke-width="1" opacity="1" d="M 532.5 128 L 533.5 129 L 543.5 129 L 557.5 133 Q 572.5 139.5 583 150.5 Q 598.5 165 603 190.5 L 603 486 L 563.5 486 L 563 485.5 L 563 196.5 Q 560.4 183.6 551.5 177 L 539.5 171 L 525.5 171 Q 515.1 174.1 509 181.5 L 503 193.5 L 503 486 L 462.5 486 L 462 485.5 L 462 194.5 L 463 193.5 L 464 181.5 L 471 163.5 Q 478.1 151.6 488.5 143 L 505.5 133 L 520.5 129 L 531.5 129 L 532.5 128 Z " /><path fill="rgb(0,0,0)" stroke="rgb(0,0,0)" stroke-width="1" opacity="1" d="M 333.5 129 L 356.5 129 L 368.5 132 Q 387.9 139.6 400 154.5 L 412 173.5 L 415 182.5 L 416 197.5 L 417 198.5 L 417 486 L 376.5 486 L 376 485.5 L 376 194.5 Q 372.7 182.3 363.5 176 L 352.5 171 L 339.5 171 Q 326.2 174.2 320 184.5 L 316 194.5 L 316 486 L 276.5 486 L 276 485.5 L 276 188.5 Q 281.4 159.4 300.5 144 Q 313.2 132.7 333.5 129 Z " /><path fill="rgb(0,0,0)" stroke="rgb(0,0,0)" stroke-width="1" opacity="1" d="M 186.5 514 Q 195.8 512.6 198 518.5 Q 200.4 526.3 194 524 L 191.5 518 Q 186 517 185 520.5 Q 183.3 528.3 187.5 530 L 197 534.5 L 199 542.5 L 197 551 L 193.5 553 L 185.5 553 L 181 549.5 L 180 543 L 185 543 L 185 546.5 Q 186 550 191.5 549 Q 195.3 546.8 194 539.5 L 191.5 536 L 182 531.5 Q 179.4 528.6 180 522.5 L 181 518.5 L 184.5 515 L 186.5 514 Z " /><path fill="rgb(0,0,0)" stroke="rgb(0,0,0)" stroke-width="1" opacity="1" d="M 221 514 Q 232.4 511.9 237 517.5 L 239 525.5 Q 236.8 526.8 238 531.5 L 234.5 536 L 225 537 L 225 552.5 L 221 553 L 221 514 Z M 225 518 L 225 533 L 233 532 L 234 530 Q 235 522 233 519 L 225 518 Z " /><path fill="rgb(0,0,0)" stroke="rgb(0,0,0)" stroke-width="1" opacity="1" d="M 264.5 514 Q 268.3 513.3 269 515.5 L 277 553 L 272 553 L 272 549.5 L 271 544 L 261 544 L 261 548.5 L 260 553 L 255 553 L 255 550.5 L 263 519.5 L 263 515.5 L 264.5 514 Z M 265 524 L 263 535 L 263 540 L 269 540 Q 270 533 267 529 Q 269 523 265 524 Z " /><path fill="rgb(0,0,0)" stroke="rgb(0,0,0)" stroke-width="1" opacity="1" d="M 302.5 514 Q 310.5 512.5 313 516.5 L 315 524 L 310 524 L 310 520.5 Q 309.3 517.3 304.5 518 L 302 520.5 L 301 524.5 L 301 543.5 L 303 549 Q 308.5 550.3 310 546.5 L 310 543 L 315 543 Q 315.8 549.2 311.5 552 L 302.5 553 L 299 550.5 L 297 546.5 Q 298.4 537.6 296 532.5 L 297 531.5 L 297 520.5 L 300.5 515 L 302.5 514 Z " /><path fill="rgb(0,0,0)" stroke="rgb(0,0,0)" stroke-width="1" opacity="1" d="M 337 514 L 351.5 514 L 352 518 L 342.5 518 L 341 519.5 L 341 531 L 350 531 L 350 536 L 341 536 L 341 549 L 352 549 L 352 553 L 337 553 L 337 514 Z " /><path fill="rgb(0,0,0)" stroke="rgb(0,0,0)" stroke-width="1" opacity="1" d="M 400 514 L 411.5 514 L 417 518.5 L 419 534.5 L 418 535.5 L 418 546.5 L 413.5 552 L 411.5 553 L 400 553 L 400 514 Z M 405 518 L 405 549 Q 405 550 411 549 L 414 544 L 414 525 L 413 521 Q 411 517 405 518 Z " /><path fill="rgb(0,0,0)" stroke="rgb(0,0,0)" stroke-width="1" opacity="1" d="M 441 514 L 455.5 514 L 456 518 L 446.5 518 L 445 519.5 L 445 531 L 454 531 L 454 536 L 445 536 L 445 547.5 L 446.5 549 L 456 549 L 455.5 553 L 441 553 L 441 514 Z " /><path fill="rgb(0,0,0)" stroke="rgb(0,0,0)" stroke-width="1" opacity="1" d="M 482.5 514 L 489.5 514 L 493 516 L 495 524 L 490 524 L 490 520.5 Q 489 517 483.5 518 Q 480 520 481 526.5 L 482 529 Q 489.7 530.2 494 535.5 L 495 545.5 L 494 549.5 L 491.5 552 Q 488.3 554.3 481.5 553 L 478 550.5 L 476 543 L 481 543 L 481 546.5 Q 482 550 487.5 549 Q 492 547 490 538.5 L 477 529.5 Q 474.8 518.3 480.5 515 L 482.5 514 Z " /><path fill="rgb(0,0,0)" stroke="rgb(0,0,0)" stroke-width="1" opacity="1" d="M 517 514 L 522 514.5 L 522 553 L 517 552.5 L 517 514 Z " /><path fill="rgb(0,0,0)" stroke="rgb(0,0,0)" stroke-width="1" opacity="1" d="M 549.5 514 Q 558.5 512.5 561 517.5 L 562 524 L 558 524 L 558 522.5 L 555.5 518 Q 550 517 549 520.5 L 549 546.5 L 551.5 549 Q 556 550 557 547.5 L 558 545.5 L 558 536 Q 550.9 538.4 553 532 L 562 532 L 562 547.5 L 557.5 553 Q 547 555 545 548.5 L 544 544.5 L 544 522.5 L 545 518.5 L 549.5 514 Z " /><path fill="rgb(0,0,0)" stroke="rgb(0,0,0)" stroke-width="1" opacity="1" d="M 585 514 Q 588.8 513 590 515.5 L 598.5 539 L 599 514 L 604 514.5 L 604 553 L 599 553 L 599 550.5 L 589.5 527 L 589 553 L 585 552.5 L 585 514 Z " /><path fill="rgb(0,0,0)" stroke="rgb(0,0,0)" stroke-width="1" opacity="1" d="M 250.5 578 L 258 584.5 L 250 586.5 L 256 591.5 L 260 599 L 252 602 Q 250.4 594.9 245 590.5 L 250 587.5 L 244.5 587 Q 242.7 589.8 236.5 588 L 234 589.5 L 237 594.5 L 230 597.5 L 245.5 598 L 249 597 L 249 603 L 235.5 603 L 235 606 L 257.5 606 L 258 606.5 L 258 612 L 206.5 612 L 206 611.5 L 206 606 L 226.5 606 L 227 603 L 214.5 603 L 214 599.5 L 213 599.5 L 210.5 604 L 203.5 598 L 199 609.5 L 205 619.5 L 205 623 L 245.5 623 L 246 620 L 211.5 620 L 210.5 621 L 210 614 L 214.5 615 L 252.5 615 L 255 614 Q 253.1 616.8 254 623 L 260 623 L 260 629 L 254 629 L 254 635.5 L 255 638 L 252.5 637 L 232.5 637 L 240.5 646 L 248 648.5 L 247 653.5 L 243.5 658 L 229.5 660 L 228.5 659 L 219.5 659 L 216 656.5 Q 217 646 215 640 L 224 640 L 224 650.5 L 225.5 652 L 237.5 652 Q 240.5 650.4 239 645 L 232.5 648 L 226 639.5 L 229 637.5 L 212.5 637 L 210 638 L 210 631.5 L 210.5 631 L 245.5 631 L 246 629 L 206.5 629 L 206 631.5 L 201.5 639 L 191 641 Q 191.9 634.8 190 632 Q 195.5 633.3 197 629.5 Q 197.3 615.7 190 609.5 L 193 604.5 L 198 589.5 L 189 589 L 189 659.5 L 188.5 660 L 180 660 L 180.5 580 L 181.5 581 L 201.5 581 L 202.5 580 L 207 584.5 L 208 587.5 L 205 595.5 L 206 595.5 L 212 582 L 232.5 582 L 233.5 581 L 245.5 580 L 250.5 578 Z M 220 589 L 215 597 L 218 598 L 229 598 L 226 592 L 231 590 L 220 589 Z " /><path fill="rgb(0,0,0)" stroke="rgb(0,0,0)" stroke-width="1" opacity="1" d="M 327.5 578 L 338 578 L 338 583.5 L 338.5 584 L 372 584 L 372 604 L 363.5 604 L 362 605.5 L 362 620.5 L 363 624 L 338.5 624 L 338 628 L 369.5 628 Q 370.5 628 370 632.5 L 369 633.5 L 369 655.5 L 368 658 L 359.5 660 L 350 660 L 348 651 Q 350.7 652.1 350 649.5 L 347.5 648 L 334.5 651 L 318.5 652 L 312.5 654 L 311 644 Q 322.1 645.2 329 643 L 329 636.5 L 328.5 636 L 307 636 L 307 659.5 L 308 660.5 L 297 661 L 298 656.5 L 298 631.5 L 297 628 L 328.5 628 L 329 624 L 304 623.5 L 305 622.5 L 305 604 L 295.5 604 L 295 601.5 L 296 600.5 L 296 586.5 L 295 584 L 327.5 584 Q 328.5 584 328 579.5 L 327.5 578 Z M 305 593 L 306 596 L 362 596 L 362 593 L 305 593 Z M 314 603 L 315 607 L 329 607 L 329 603 L 314 603 Z M 338 603 L 339 607 L 353 607 L 353 603 L 338 603 Z M 314 613 L 315 617 L 329 617 L 329 613 L 314 613 Z M 338 613 L 339 617 L 353 617 L 353 613 L 338 613 Z M 338 636 L 339 643 L 345 642 L 344 640 L 349 637 L 338 636 Z M 351 636 L 356 645 L 357 649 L 353 651 L 360 651 L 360 636 L 351 636 Z " /><path fill="rgb(0,0,0)" stroke="rgb(0,0,0)" stroke-width="1" opacity="1" d="M 576 579 L 587 579 L 587 606 L 599.5 606 L 604 605 L 604 615 L 587 615 L 587 660.5 L 586.5 661 L 576 661 L 577 656.5 L 577 615 L 560 615 L 560 605 Q 566.5 607.1 577 606 L 577 582.5 L 576 579 Z " /><path fill="rgb(0,0,0)" stroke="rgb(0,0,0)" stroke-width="1" opacity="1" d="M 410 581 L 437.5 581 L 438 581.5 L 438 589 L 410.5 589 L 410 588.5 L 410 581 Z " /><path fill="rgb(0,0,0)" stroke="rgb(0,0,0)" stroke-width="1" opacity="1" d="M 448 581 L 475.5 581 Q 476.5 581 476 585.5 L 475 586.5 L 475 601.5 Q 476 604 480.5 603 L 482 601.5 L 482 593 L 490 596.5 Q 491.3 607.3 485.5 611 L 469.5 611 L 467 608.5 L 466 605.5 L 466 590 L 457.5 590 L 457 592.5 L 454 605.5 L 446.5 615 L 439 609.5 Q 450.5 601.8 448 581 Z " /><path fill="rgb(0,0,0)" stroke="rgb(0,0,0)" stroke-width="1" opacity="1" d="M 526 581 L 556.5 581 L 557 581.5 L 557 590 L 552.5 589 L 530.5 589 L 526 590 L 526 581 Z " /><path fill="rgb(0,0,0)" stroke="rgb(0,0,0)" stroke-width="1" opacity="1" d="M 408 593 L 411.5 594 L 436.5 594 L 440 593 L 440 601.5 L 439.5 602 L 408 602 L 408 593 Z " /><path fill="rgb(0,0,0)" stroke="rgb(0,0,0)" stroke-width="1" opacity="1" d="M 522.5 593 L 523.5 594 L 560 594 L 560 601.5 L 559.5 602 L 523.5 602 L 522 602.5 L 522.5 593 Z " /><path fill="rgb(0,0,0)" stroke="rgb(0,0,0)" stroke-width="1" opacity="1" d="M 411 607 L 437.5 607 L 438 607.5 L 438 615 L 411.5 615 L 411 614.5 L 411 607 Z " /><path fill="rgb(0,0,0)" stroke="rgb(0,0,0)" stroke-width="1" opacity="1" d="M 526 607 L 556.5 607 L 557 607.5 L 557 615 L 526.5 615 L 526 614.5 L 526 607 Z " /><path fill="rgb(0,0,0)" stroke="rgb(0,0,0)" stroke-width="1" opacity="1" d="M 442 616 L 480.5 616 L 485 620.5 Q 480 633.5 471 642.5 L 479.5 648 L 491 651.5 Q 487.3 654.6 487 660 L 478.5 658 L 463.5 650 Q 454.5 657.7 442 661 L 438.5 654 L 438 660 L 430 660 L 429.5 657 L 419 657 L 419 661 L 410 661 L 410 654.5 L 411 653.5 L 411 636.5 L 410 632 L 438 632 L 438 651.5 L 439.5 651 Q 450.1 648.8 457 644 L 450 634.5 L 446 625 L 442 625 L 442 616 Z M 456 625 L 459 633 L 465 637 L 472 627 L 472 625 L 456 625 Z M 419 640 L 419 649 L 430 649 L 430 640 L 419 640 Z " /><path fill="rgb(0,0,0)" stroke="rgb(0,0,0)" stroke-width="1" opacity="1" d="M 411 619 L 413.5 620 L 434.5 620 L 438 619 L 437.5 628 L 436.5 627 L 411 627 L 411 619 Z " /><path fill="rgb(0,0,0)" stroke="rgb(0,0,0)" stroke-width="1" opacity="1" d="M 526 619 L 556.5 619 L 557 619.5 L 557 628 L 554.5 627 L 528.5 627 L 526 628 L 526 619 Z " /><path fill="rgb(0,0,0)" stroke="rgb(0,0,0)" stroke-width="1" opacity="1" d="M 526 632 L 557 632 L 557 660 L 548 660 L 547.5 657 L 536 657 L 536 661 L 526 661 L 527 655.5 L 527 636.5 L 526 632 Z M 537 640 L 535 642 L 535 649 L 548 649 L 548 640 L 537 640 Z " /><path fill="rgb(0,0,0)" stroke="rgb(0,0,0)" stroke-width="1" opacity="1" d="M 250.5 639 L 254 641.5 L 261 653.5 L 253.5 658 Q 251 648.5 245 642.5 L 250.5 639 Z " /><path fill="rgb(0,0,0)" stroke="rgb(0,0,0)" stroke-width="1" opacity="1" d="M 206.5 640 L 213 643.5 L 207 655.5 L 203.5 659 L 197 653.5 L 206.5 640 Z " /><path fill="rgb(255,255,255)" stroke="rgb(255,255,255)" stroke-width="1" opacity="1" d="M 0 0 L 800 0 L 800 800 L 0 800 L 0 0 Z M 179 128 L 179 486 L 180 486 L 222 486 L 222 129 L 222 128 L 179 128 Z M 336 128 L 315 134 L 300 144 Q 290 153 283 165 L 278 177 L 275 192 L 275 486 L 276 486 L 317 486 L 317 194 L 321 185 L 330 176 L 339 172 Q 343 173 345 171 L 354 172 L 363 176 L 371 185 L 375 194 Q 374 198 376 200 L 376 486 L 377 486 L 417 486 L 417 190 Q 413 164 397 150 Q 394 151 395 149 Q 385 138 371 132 L 356 128 L 336 128 Z M 523 128 L 504 133 L 489 142 Q 468 158 462 189 L 462 486 L 463 486 L 503 486 L 503 197 L 509 183 L 518 175 L 531 171 L 541 172 L 551 177 Q 559 183 562 195 L 562 486 L 563 486 L 604 486 L 604 193 L 599 173 Q 593 160 584 151 Q 572 138 555 131 L 542 128 L 523 128 Z M 187 513 L 185 514 L 180 520 Q 178 528 181 532 L 191 536 Q 195 538 193 547 Q 192 549 188 548 L 185 542 Q 180 541 179 544 L 180 550 L 186 554 Q 194 555 197 552 L 199 548 Q 200 539 198 535 L 196 532 L 188 529 Q 184 527 186 521 Q 187 518 192 519 L 195 525 Q 198 526 199 524 L 198 518 L 193 513 L 190 514 L 187 513 Z M 222 513 L 220 515 L 220 553 Q 221 555 225 554 L 226 553 L 226 537 L 236 536 L 239 531 Q 240 522 238 518 Q 237 513 232 514 L 230 514 Q 228 511 222 513 Z M 265 513 L 262 518 L 254 553 Q 255 555 260 554 L 262 547 L 262 544 L 270 544 L 272 554 Q 277 555 278 553 L 269 515 Q 268 512 265 513 Z M 304 513 L 300 515 L 296 522 L 296 546 L 298 551 L 303 554 Q 309 556 311 553 Q 313 554 312 551 L 314 551 L 316 545 L 316 543 L 310 543 L 309 548 L 307 549 L 303 548 L 302 546 L 302 523 L 303 521 Q 304 518 308 519 L 309 523 Q 311 525 316 524 L 313 515 Q 310 512 304 513 Z M 338 513 L 336 515 L 336 553 L 338 554 L 352 554 L 352 548 L 342 548 L 342 536 L 351 536 L 351 531 L 342 531 L 342 519 L 352 519 L 352 513 L 338 513 Z M 401 513 L 399 515 L 399 553 L 401 554 Q 410 556 415 552 L 419 546 L 419 522 L 418 519 Q 414 511 401 513 Z M 442 513 L 440 515 L 440 553 L 442 554 L 456 554 L 456 548 L 446 548 L 446 536 L 455 536 L 455 531 L 446 531 L 446 519 L 456 519 L 456 513 L 442 513 Z M 484 513 L 481 514 L 476 521 Q 475 527 477 531 Q 480 535 487 536 Q 491 538 489 547 Q 488 549 484 548 Q 481 547 482 544 Q 481 541 476 542 L 477 551 Q 479 554 485 554 L 487 554 L 492 553 L 495 549 L 495 537 L 494 535 L 482 528 Q 481 522 483 521 Q 482 517 488 519 Q 490 520 489 524 Q 490 526 495 525 L 495 519 L 493 515 L 489 513 L 486 514 L 484 513 Z M 518 513 L 516 515 L 516 553 Q 517 555 522 554 L 522 514 Q 522 513 518 513 Z M 551 513 L 549 514 L 545 518 L 543 525 Q 541 540 545 550 L 551 554 L 559 553 L 563 548 L 563 532 L 553 532 L 553 537 L 557 538 L 557 547 L 553 549 L 550 547 L 549 542 L 549 526 L 552 519 Q 556 518 557 521 L 557 524 L 563 524 L 562 518 Q 560 512 551 513 Z M 586 513 L 584 515 L 584 553 Q 585 555 589 554 L 590 553 L 591 531 L 599 553 L 599 554 L 604 554 L 604 514 Q 604 513 600 513 L 598 515 L 598 535 L 590 515 Q 589 512 586 513 Z M 327 577 L 327 584 L 298 584 L 295 583 L 295 605 L 296 605 L 304 605 L 304 625 L 328 625 L 328 628 L 302 628 L 301 627 L 297 628 L 297 661 L 308 661 L 308 637 L 328 637 L 328 643 L 311 643 L 312 654 L 339 651 L 346 649 L 349 650 L 347 650 L 351 660 Q 363 662 369 658 L 370 656 L 370 627 L 365 628 L 339 628 L 338 624 L 355 624 L 356 625 L 363 625 L 363 605 L 372 605 L 373 604 L 372 603 L 372 586 Q 374 584 372 583 L 370 584 L 340 584 Q 338 584 339 579 L 338 577 L 327 577 Z M 249 578 L 236 581 L 213 581 L 208 592 L 206 593 L 208 589 L 207 584 L 204 580 L 180 580 L 180 656 L 179 660 L 181 661 L 189 661 L 190 660 L 191 639 L 191 641 Q 198 643 202 639 Q 204 640 203 637 L 205 637 L 206 631 L 208 629 L 245 629 L 245 631 L 212 631 L 211 630 Q 207 632 209 638 L 226 639 Q 225 641 224 639 L 215 639 L 215 657 L 219 659 L 222 660 L 241 660 L 244 659 Q 248 656 249 649 L 254 658 L 256 658 L 261 654 L 254 641 L 252 639 L 252 638 L 255 638 L 255 630 L 257 630 Q 260 631 261 629 Q 262 623 260 622 L 255 622 L 255 614 L 211 614 L 210 615 L 210 621 L 245 622 L 207 622 L 200 610 L 203 601 L 205 599 L 210 604 L 213 602 L 215 604 L 226 605 L 207 605 L 205 607 Q 204 612 207 613 L 258 613 L 259 612 Q 260 606 258 605 Q 252 604 251 606 L 237 606 L 236 603 L 250 604 L 251 600 L 253 603 L 261 599 L 253 588 Q 254 585 258 586 L 257 583 L 253 578 L 249 578 Z M 576 578 L 576 605 L 560 605 L 560 616 L 576 616 L 576 617 L 576 662 L 587 662 L 588 661 L 587 656 L 587 615 L 594 616 L 604 616 L 604 605 L 587 606 L 587 584 L 588 580 L 587 578 L 576 578 Z M 410 580 L 410 590 L 417 589 L 433 589 L 438 590 Q 441 588 439 582 L 438 580 L 410 580 Z M 449 580 L 447 582 L 447 597 Q 445 604 440 608 L 438 606 L 412 606 Q 408 608 410 615 Q 411 617 413 615 L 437 615 L 438 616 Q 440 615 439 611 L 445 615 L 441 617 L 441 625 L 443 626 L 445 625 L 448 633 L 456 643 L 454 645 L 440 651 L 439 633 L 438 631 L 410 631 L 410 659 L 409 661 L 411 662 L 419 662 Q 421 661 420 657 L 429 657 L 430 660 L 439 660 L 440 656 L 443 661 Q 455 658 463 651 L 466 651 Q 474 659 487 661 L 491 650 Q 479 649 472 643 Q 481 633 485 620 L 481 615 L 448 615 Q 454 610 456 603 L 457 591 L 466 591 L 466 609 L 471 612 L 485 612 L 487 611 L 490 607 L 491 595 L 482 592 L 481 602 L 478 603 L 476 602 L 476 580 L 474 581 L 451 581 L 449 580 Z M 527 580 L 525 582 L 525 590 L 557 590 L 557 590 L 557 581 L 556 581 L 528 581 L 527 580 Z M 407 593 L 407 602 L 409 603 L 440 603 L 441 602 L 441 594 L 441 593 L 407 593 Z M 522 593 L 522 603 L 523 603 L 560 603 Q 563 601 561 595 L 560 593 L 522 593 Z M 526 606 L 527 616 L 528 615 L 556 615 L 557 616 L 557 607 L 557 606 L 526 606 Z M 410 619 L 410 628 L 411 628 L 439 628 L 439 620 L 439 619 L 410 619 Z M 526 619 L 526 628 L 527 628 L 557 628 L 557 620 L 557 619 L 526 619 Z M 526 631 L 526 660 Q 524 661 527 662 L 536 662 L 536 658 L 547 658 L 548 660 L 558 660 L 558 633 L 557 631 L 555 632 L 529 632 L 526 631 Z M 207 639 L 196 655 L 205 660 L 212 648 L 213 642 L 207 639 Z " /><path fill="rgb(255,255,255)" stroke="rgb(255,255,255)" stroke-width="1" opacity="1" d="M 226 519 L 231.5 519 L 232 520.5 L 233 521.5 L 233 529.5 Q 231.5 533.3 226 532 L 226 519 Z " /><path fill="rgb(255,255,255)" stroke="rgb(255,255,255)" stroke-width="1" opacity="1" d="M 405 519 Q 410.4 517.5 412 520.5 L 413 522.5 L 413 544.5 L 410.5 548 Q 405.1 548.6 405 547.5 L 405 519 Z " /><path fill="rgb(255,255,255)" stroke="rgb(255,255,255)" stroke-width="1" opacity="1" d="M 265 527 Q 268.7 525.6 267 531.5 L 269 539 L 263.5 539 L 263 537.5 L 265 527 Z " /><path fill="rgb(255,255,255)" stroke="rgb(255,255,255)" stroke-width="1" opacity="1" d="M 242.5 588 L 247 588.5 L 244 590.5 L 249 596.5 L 232.5 598 L 232.5 597 L 238 596 L 237 592 L 235 591.5 L 235.5 589 Q 241 590.5 242.5 588 Z " /><path fill="rgb(255,255,255)" stroke="rgb(255,255,255)" stroke-width="1" opacity="1" d="M 190 590 L 197 590.5 L 190.5 607 L 190 590 Z " /><path fill="rgb(255,255,255)" stroke="rgb(255,255,255)" stroke-width="1" opacity="1" d="M 219.5 590 L 226 590.5 L 226 592.5 L 228 596.5 L 216 597 L 219.5 590 Z " /><path fill="rgb(255,255,255)" stroke="rgb(255,255,255)" stroke-width="1" opacity="1" d="M 306 593 L 361.5 593 L 362 596 L 306.5 596 L 306 593 Z " /><path fill="rgb(255,255,255)" stroke="rgb(255,255,255)" stroke-width="1" opacity="1" d="M 338 603 L 351.5 603 L 352 607 L 338.5 607 L 338 603 Z " /><path fill="rgb(255,255,255)" stroke="rgb(255,255,255)" stroke-width="1" opacity="1" d="M 315 604 L 327.5 604 L 328 606 L 315.5 606 L 315 604 Z " /><path fill="rgb(255,255,255)" stroke="rgb(255,255,255)" stroke-width="1" opacity="1" d="M 190.5 611 L 196 621.5 L 196 629.5 Q 194.6 632.3 190 631 L 190.5 611 Z " /><path fill="rgb(255,255,255)" stroke="rgb(255,255,255)" stroke-width="1" opacity="1" d="M 338 613 L 351.5 613 L 352 617 L 338.5 617 L 338 613 Z " /><path fill="rgb(255,255,255)" stroke="rgb(255,255,255)" stroke-width="1" opacity="1" d="M 315 614 L 327.5 614 L 328 616 L 315.5 616 L 315 614 Z " /><path fill="rgb(255,255,255)" stroke="rgb(255,255,255)" stroke-width="1" opacity="1" d="M 456 625 L 470.5 625 L 471 626.5 L 465 636 L 459 631.5 L 456 625 Z " /><path fill="rgb(255,255,255)" stroke="rgb(255,255,255)" stroke-width="1" opacity="1" d="M 338 636 L 348 636.5 L 344 638.5 Q 345.3 642.3 341.5 641 L 338 642 L 338 636 Z " /><path fill="rgb(255,255,255)" stroke="rgb(255,255,255)" stroke-width="1" opacity="1" d="M 351.5 636 L 359 636 L 359 651 L 354 650.5 L 358 649 L 351.5 636 Z " /><path fill="rgb(255,255,255)" stroke="rgb(255,255,255)" stroke-width="1" opacity="1" d="M 233.5 637 L 247.5 637 L 250 638.5 L 244 642.5 L 248 647.5 L 246.5 647 L 239 645 L 233.5 637 Z " /><path fill="rgb(255,255,255)" stroke="rgb(255,255,255)" stroke-width="1" opacity="1" d="M 225.5 641 L 232.5 649 L 239 646 L 238 651 L 231.5 652 L 230.5 651 L 224 651 L 224 642.5 L 225.5 641 Z " /><path fill="rgb(255,255,255)" stroke="rgb(255,255,255)" stroke-width="1" opacity="1" d="M 420 641 L 429 641 L 429 648 L 420 648 L 420 641 Z " /><path fill="rgb(255,255,255)" stroke="rgb(255,255,255)" stroke-width="1" opacity="1" d="M 536 641 L 547 641 L 547 648 L 536 648 L 536 641 Z " /></svg>